<svg width="22" height="15" viewBox="0 0 22 15" fill="none" xmlns="http://www.w3.org/2000/svg">
<path d="M15.6 0.0399997V14H12.8V4.92L9.06 14H6.94L3.18 4.92V14H0.38V0.0399997H3.56L8 10.42L12.44 0.0399997H15.6ZM19.6083 14.14C19.1016 14.14 18.6816 13.9867 18.3483 13.68C18.0283 13.36 17.8683 12.9667 17.8683 12.5C17.8683 12.0333 18.0283 11.6467 18.3483 11.34C18.6816 11.02 19.1016 10.86 19.6083 10.86C20.1016 10.86 20.5083 11.02 20.8283 11.34C21.1483 11.6467 21.3083 12.0333 21.3083 12.5C21.3083 12.9667 21.1483 13.36 20.8283 13.68C20.5083 13.9867 20.1016 14.14 19.6083 14.14Z" fill="#E9204F"/>
</svg>
