<svg width="18" height="18" viewBox="0 0 18 18" fill="none" xmlns="http://www.w3.org/2000/svg">
<path d="M15.495 5.235C14.8245 4.08525 13.9147 3.17475 12.7642 2.505C11.6145 1.83525 10.3597 1.5 9 1.5C7.64025 1.5 6.3855 1.83525 5.235 2.505C4.08525 3.17475 3.17475 4.08525 2.505 5.235C1.83525 6.38475 1.5 7.64025 1.5 9C1.5 10.3597 1.8345 11.6153 2.505 12.765C3.1755 13.9155 4.08525 14.8252 5.23575 15.495C6.3855 16.1648 7.64025 16.5 9 16.5C10.3597 16.5 11.6145 16.1648 12.765 15.495C13.9148 14.8252 14.8252 13.9155 15.4957 12.765C16.1655 11.6153 16.5 10.3597 16.5 9C16.5 7.64025 16.1655 6.38475 15.495 5.235ZM9 2.745C10.5 2.745 11.829 3.225 12.99 4.18425C12.3 5.06475 11.2755 5.78925 9.915 6.35925C9.1635 4.9995 8.349 3.864 7.46925 2.95425C7.98075 2.81475 8.48925 2.745 9 2.745ZM4.1325 5.1C4.698 4.38975 5.3745 3.8355 6.16575 3.435C7.07475 4.33575 7.9095 5.46 8.67075 6.81C7.17075 7.26 5.58525 7.485 3.915 7.485C3.48525 7.485 3.1605 7.47525 2.94 7.455C3.17025 6.59475 3.56775 5.81025 4.1325 5.1ZM2.745 9C2.745 8.9595 2.74725 8.91 2.7525 8.85C2.75775 8.79 2.76 8.7405 2.76 8.7C2.9505 8.7105 3.24075 8.715 3.63075 8.715C5.63025 8.715 7.49025 8.43975 9.21 7.89C9.35025 8.16975 9.49575 8.48475 9.645 8.835C8.655 9.05475 7.6395 9.5895 6.59925 10.44C5.559 11.2905 4.8 12.1853 4.32 13.125C3.27 11.9347 2.745 10.56 2.745 9ZM9 15.255C7.5795 15.255 6.3045 14.8147 5.17425 13.9357C5.625 13.0455 6.31725 12.1943 7.2525 11.385C8.187 10.575 9.11475 10.0702 10.035 9.87C10.614 11.4697 11.0047 13.1243 11.205 14.835C10.4745 15.1148 9.7395 15.255 9 15.255ZM14.31 12.285C13.8105 13.0845 13.1655 13.74 12.375 14.2507C12.195 12.6908 11.85 11.1705 11.3407 9.69C12.0398 9.6405 12.6645 9.615 13.2157 9.615C13.815 9.615 14.4803 9.6405 15.21 9.69C15.1095 10.62 14.8095 11.4847 14.31 12.285ZM13.38 8.535C12.51 8.535 11.7052 8.57025 10.965 8.64C10.7745 8.15025 10.605 7.74525 10.455 7.425C12.0045 6.7455 13.104 5.9205 13.7543 4.95C14.6543 6.0105 15.1447 7.22025 15.2242 8.58C14.6152 8.55 14.0002 8.535 13.38 8.535Z" fill="#6C757D"/>
</svg>
