<svg width="18" height="18" viewBox="0 0 18 18" fill="none" xmlns="http://www.w3.org/2000/svg">
<path d="M8.99923 5.53275C7.08373 5.53275 5.53198 7.08525 5.53198 9C5.53198 10.9155 7.08373 12.468 8.99923 12.468C10.9132 12.468 12.4665 10.9155 12.4665 9C12.4665 7.08525 10.9132 5.53275 8.99923 5.53275ZM8.99923 11.253C7.75498 11.253 6.74623 10.2442 6.74623 9.00075C6.74623 7.7565 7.75498 6.7485 8.99923 6.7485C10.2435 6.7485 11.2507 7.7565 11.2507 9.00075C11.2507 10.2442 10.2435 11.253 8.99923 11.253Z" fill="#DEE2E6"/>
<path d="M12.6045 6.21374C13.051 6.21374 13.413 5.85176 13.413 5.40524C13.413 4.95872 13.051 4.59674 12.6045 4.59674C12.158 4.59674 11.796 4.95872 11.796 5.40524C11.796 5.85176 12.158 6.21374 12.6045 6.21374Z" fill="#DEE2E6"/>
<path d="M15.3998 4.58325C15.048 3.6765 14.3318 2.9595 13.425 2.60925C12.9008 2.412 12.3465 2.30625 11.7855 2.29425C11.0633 2.26275 10.8345 2.25375 9.00303 2.25375C7.17153 2.25375 6.93678 2.25375 6.22053 2.29425C5.66103 2.3055 5.10678 2.41125 4.58253 2.60925C3.67503 2.9595 2.95878 3.6765 2.60778 4.58325C2.41053 5.10825 2.30478 5.66175 2.29353 6.22275C2.26128 6.94425 2.25153 7.173 2.25153 9.00525C2.25153 10.8368 2.25153 11.07 2.29353 11.7878C2.30478 12.3488 2.41053 12.9023 2.60778 13.428C2.95953 14.334 3.67578 15.051 4.58328 15.402C5.10528 15.606 5.65953 15.7215 6.22203 15.7395C6.94428 15.771 7.17303 15.7808 9.00453 15.7808C10.836 15.7808 11.0708 15.7808 11.787 15.7395C12.3473 15.7283 12.9015 15.6218 13.4265 15.4253C14.3333 15.0735 15.0495 14.3573 15.4013 13.4505C15.5985 12.9255 15.7043 12.372 15.7155 11.811C15.7478 11.0895 15.7575 10.8608 15.7575 9.0285C15.7575 7.19625 15.7575 6.96375 15.7155 6.246C15.7058 5.6775 15.6008 5.11425 15.3998 4.58325ZM14.4863 11.7323C14.481 12.1643 14.403 12.5925 14.253 12.9983C14.0243 13.5885 13.5585 14.055 12.969 14.2815C12.5678 14.4308 12.1448 14.5088 11.7165 14.5148C11.004 14.5478 10.803 14.556 8.97603 14.556C7.14753 14.556 6.96078 14.556 6.23478 14.5148C5.80803 14.5095 5.38353 14.4308 4.98303 14.2815C4.39128 14.0558 3.92253 13.5893 3.69378 12.9983C3.54678 12.5978 3.46728 12.174 3.46053 11.7465C3.42828 11.034 3.42078 10.833 3.42078 9.006C3.42078 7.17825 3.42078 6.9915 3.46053 6.26475C3.46578 5.83275 3.54378 5.40525 3.69378 4.9995C3.92253 4.40775 4.39128 3.942 4.98303 3.7155C5.38353 3.567 5.80803 3.48825 6.23478 3.48225C6.94803 3.45 7.14828 3.441 8.97603 3.441C10.8038 3.441 10.9913 3.441 11.7165 3.48225C12.1448 3.4875 12.5678 3.56625 12.969 3.7155C13.5585 3.94275 14.0243 4.40925 14.253 4.9995C14.4 5.4 14.4795 5.82375 14.4863 6.25125C14.5185 6.9645 14.5268 7.16475 14.5268 8.9925C14.5268 10.8195 14.5268 11.016 14.4945 11.733H14.4863V11.7323Z" fill="#DEE2E6"/>
</svg>
