<svg width="18" height="18" viewBox="0 0 18 18" fill="none" xmlns="http://www.w3.org/2000/svg">
<path d="M8.99923 5.53271C7.08373 5.53271 5.53198 7.08521 5.53198 8.99996C5.53198 10.9155 7.08373 12.468 8.99923 12.468C10.9132 12.468 12.4665 10.9155 12.4665 8.99996C12.4665 7.08521 10.9132 5.53271 8.99923 5.53271ZM8.99923 11.253C7.75498 11.253 6.74623 10.2442 6.74623 9.00072C6.74623 7.75647 7.75498 6.74847 8.99923 6.74847C10.2435 6.74847 11.2507 7.75647 11.2507 9.00072C11.2507 10.2442 10.2435 11.253 8.99923 11.253Z" fill="#6C757D"/>
<path d="M12.6045 6.21368C13.051 6.21368 13.413 5.8517 13.413 5.40518C13.413 4.95866 13.051 4.59668 12.6045 4.59668C12.158 4.59668 11.796 4.95866 11.796 5.40518C11.796 5.8517 12.158 6.21368 12.6045 6.21368Z" fill="#6C757D"/>
<path d="M15.3998 4.58341C15.048 3.67666 14.3318 2.95966 13.425 2.60941C12.9008 2.41216 12.3465 2.30641 11.7855 2.29441C11.0633 2.26291 10.8345 2.25391 9.00303 2.25391C7.17153 2.25391 6.93678 2.25391 6.22053 2.29441C5.66103 2.30566 5.10678 2.41141 4.58253 2.60941C3.67503 2.95966 2.95878 3.67666 2.60778 4.58341C2.41053 5.10841 2.30478 5.66191 2.29353 6.22291C2.26128 6.94441 2.25153 7.17316 2.25153 9.00541C2.25153 10.8369 2.25153 11.0702 2.29353 11.7879C2.30478 12.3489 2.41053 12.9024 2.60778 13.4282C2.95953 14.3342 3.67578 15.0512 4.58328 15.4022C5.10528 15.6062 5.65953 15.7217 6.22203 15.7397C6.94428 15.7712 7.17303 15.7809 9.00453 15.7809C10.836 15.7809 11.0708 15.7809 11.787 15.7397C12.3473 15.7284 12.9015 15.6219 13.4265 15.4254C14.3333 15.0737 15.0495 14.3574 15.4013 13.4507C15.5985 12.9257 15.7043 12.3722 15.7155 11.8112C15.7478 11.0897 15.7575 10.8609 15.7575 9.02866C15.7575 7.19641 15.7575 6.96391 15.7155 6.24616C15.7058 5.67766 15.6008 5.11441 15.3998 4.58341ZM14.4863 11.7324C14.481 12.1644 14.403 12.5927 14.253 12.9984C14.0243 13.5887 13.5585 14.0552 12.969 14.2817C12.5678 14.4309 12.1448 14.5089 11.7165 14.5149C11.004 14.5479 10.803 14.5562 8.97603 14.5562C7.14753 14.5562 6.96078 14.5562 6.23478 14.5149C5.80803 14.5097 5.38353 14.4309 4.98303 14.2817C4.39128 14.0559 3.92253 13.5894 3.69378 12.9984C3.54678 12.5979 3.46728 12.1742 3.46053 11.7467C3.42828 11.0342 3.42078 10.8332 3.42078 9.00616C3.42078 7.17841 3.42078 6.99166 3.46053 6.26491C3.46578 5.83291 3.54378 5.40541 3.69378 4.99966C3.92253 4.40791 4.39128 3.94216 4.98303 3.71566C5.38353 3.56716 5.80803 3.48841 6.23478 3.48241C6.94803 3.45016 7.14828 3.44116 8.97603 3.44116C10.8038 3.44116 10.9913 3.44116 11.7165 3.48241C12.1448 3.48766 12.5678 3.56641 12.969 3.71566C13.5585 3.94291 14.0243 4.40941 14.253 4.99966C14.4 5.40016 14.4795 5.82391 14.4863 6.25141C14.5185 6.96466 14.5268 7.16491 14.5268 8.99266C14.5268 10.8197 14.5268 11.0162 14.4945 11.7332H14.4863V11.7324Z" fill="#6C757D"/>
</svg>
