<svg width="18" height="18" viewBox="0 0 18 18" fill="none" xmlns="http://www.w3.org/2000/svg">
<path d="M3.73725 5.39775C4.64355 5.39775 5.37825 4.66305 5.37825 3.75675C5.37825 2.85045 4.64355 2.11575 3.73725 2.11575C2.83095 2.11575 2.09625 2.85045 2.09625 3.75675C2.09625 4.66305 2.83095 5.39775 3.73725 5.39775Z" fill="#DEE2E6"/>
<path d="M6.92776 6.64126V15.7455H9.75451V11.2433C9.75451 10.0553 9.97801 8.90476 11.451 8.90476C12.9038 8.90476 12.9218 10.263 12.9218 11.3183V15.7463H15.75V10.7535C15.75 8.30101 15.222 6.41626 12.3555 6.41626C10.9793 6.41626 10.0568 7.17151 9.67951 7.88626H9.64126V6.64126H6.92776V6.64126ZM2.32126 6.64126H5.15251V15.7455H2.32126V6.64126Z" fill="#DEE2E6"/>
</svg>
